<svg width="172" height="93" viewBox="0 0 172 93" fill="none" xmlns="http://www.w3.org/2000/svg">
<path d="M5 10C2.23858 10 0 7.76142 0 5C0 2.23858 2.23858 0 5 0V10ZM56.9683 17.6421L61.0464 14.7491L61.0464 14.7491L56.9683 17.6421ZM80.5317 50.8579L76.4536 53.7509L76.4536 53.7509L80.5317 50.8579ZM171.5 63.5L121.5 92.3675V34.6325L171.5 63.5ZM5 0H32.4999V10H5V0ZM61.0464 14.7491L84.6098 47.9649L76.4536 53.7509L52.8902 20.5351L61.0464 14.7491ZM105 58.5H130.5V68.5H105V58.5ZM32.4999 0C43.8432 0 54.4832 5.49732 61.0464 14.7491L52.8902 20.5351C48.2022 13.9267 40.6023 10 32.4999 10V0ZM84.6097 47.9649C89.2978 54.5733 96.8977 58.5 105 58.5V68.5C93.6568 68.5 83.0168 63.0027 76.4536 53.7509L84.6097 47.9649Z" fill="#B3B3B3"/>
</svg>
