<svg width="172" height="93" viewBox="0 0 172 93" fill="none" xmlns="http://www.w3.org/2000/svg">
<path d="M5 83C2.23858 83 0 85.2386 0 88C0 90.7614 2.23858 93 5 93V83ZM56.9683 75.3579L61.0464 78.2509L61.0464 78.2509L56.9683 75.3579ZM80.5317 42.1421L76.4536 39.2491L76.4536 39.2491L80.5317 42.1421ZM171.5 29.5L121.5 0.632487V58.3675L171.5 29.5ZM5 93H32.4999V83H5V93ZM61.0464 78.2509L84.6098 45.0351L76.4536 39.2491L52.8902 72.4649L61.0464 78.2509ZM105 34.5H130.5V24.5H105V34.5ZM32.4999 93C43.8432 93 54.4832 87.5027 61.0464 78.2509L52.8902 72.4649C48.2022 79.0733 40.6023 83 32.4999 83V93ZM84.6097 45.0351C89.2978 38.4267 96.8977 34.5 105 34.5V24.5C93.6568 24.5 83.0168 29.9973 76.4536 39.2491L84.6097 45.0351Z" fill="#B3B3B3"/>
</svg>
